<svg version="1.1" xmlns="http://www.w3.org/2000/svg" viewBox="0 0 820.4386443442995 297.68140267699016" width="1640.877288688599" height="595.3628053539803">
  <!-- svg-source:excalidraw -->
  
  <defs>
    <style class="style-fonts">
      @font-face {
        font-family: "Virgil";
        src: url("https://excalidraw.com/Virgil.woff2");
      }
      @font-face {
        font-family: "Cascadia";
        src: url("https://excalidraw.com/Cascadia.woff2");
      }
    </style>
    
  </defs>
  <g stroke-opacity="0.5" fill-opacity="0.5" stroke-linecap="round" transform="translate(45.655475971100486 170.7309580903355) rotate(0 361 58.475222293327334)"><path d="M0.18 -0.37 L722.82 0.95 L723.05 117.03 L1.16 116.39" stroke="none" stroke-width="0" fill="#e9ecef"></path><path d="M0.44 -0.78 C255.25 -2.17, 512.08 -3.46, 721.93 0.18 M724 -1.5 C724.04 28.79, 723.68 59.02, 723.87 116.89 M721.72 117.61 C565.26 115.33, 410.08 114.95, -0.15 117.43 M0.97 116.96 C0.21 92.44, 0.14 70.44, -0.6 -1.2" stroke="transparent" stroke-width="1.5" fill="none" stroke-dasharray="8 9"></path></g><g stroke-linecap="round"><g transform="translate(9.952858330309368 168.51092031825107) rotate(0 400.2664638418404 0.31269363376216575)"><path d="M0.05 0.38 C133.46 0.51, 667.1 0.2, 800.49 0.22" stroke="#1e1e1e" stroke-width="4.5" fill="none" stroke-dasharray="8 12"></path></g><g transform="translate(9.952858330309368 168.51092031825107) rotate(0 400.2664638418404 0.31269363376216575)"><path d="M772.92 11.11 C779.06 7.79, 788.04 3.74, 801.78 2.06" stroke="#1e1e1e" stroke-width="4.5" fill="none"></path></g><g transform="translate(9.952858330309368 168.51092031825107) rotate(0 400.2664638418404 0.31269363376216575)"><path d="M772.92 -9.41 C778.95 -6.52, 787.93 -4.37, 801.78 2.06" stroke="#1e1e1e" stroke-width="4.5" fill="none"></path></g></g><mask></mask><g stroke-linecap="round" transform="translate(92.49383370794999 187.8321347824779) rotate(0 35.67152292823869 19)"><path d="M9.84 1.15 L67.9 -0.79 L72.06 4.17 L69.87 33.81 L69.15 34.09 L59.87 38.64 L4.8 35.51 L1.59 33.92 L1.39 9.56 L0.53 1.83 L9.49 -1.1" stroke="none" stroke-width="0" fill="#e9ecef"></path><path d="M9.5 0 M9.5 0 C25 -1.95, 37.17 1.68, 61.84 0 M9.5 0 C21.76 1.13, 33.22 0.77, 61.84 0 M61.84 0 C68.53 -1.1, 73.19 1.69, 71.34 9.5 M61.84 0 C67.69 1.42, 70.03 4.54, 71.34 9.5 M71.34 9.5 C70.94 14.08, 70.16 16.9, 71.34 28.5 M71.34 9.5 C70.62 15.38, 71.27 21.3, 71.34 28.5 M71.34 28.5 C71.27 36.32, 68.75 39, 61.84 38 M71.34 28.5 C69.28 35.99, 67.28 40.1, 61.84 38 M61.84 38 C45.96 36.13, 25.13 36.67, 9.5 38 M61.84 38 C50.62 37.16, 38.83 37.94, 9.5 38 M9.5 38 C3.38 37.24, -0.96 36.83, 0 28.5 M9.5 38 C5.42 38.05, 1.08 34.11, 0 28.5 M0 28.5 C0.87 22.99, 0.6 16.2, 0 9.5 M0 28.5 C-0.7 23.69, -0.22 18.37, 0 9.5 M0 9.5 C-1.29 2.3, 3.34 0.3, 9.5 0 M0 9.5 C0.81 2.52, 1.27 -0.33, 9.5 0" stroke="#1e1e1e" stroke-width="1" fill="none"></path></g><g transform="translate(102.16535663618868 193.01411326922334) rotate(0 26 13.818021513254564)"><text x="26" y="0" font-family="Helvetica, Segoe UI Emoji" font-size="12.01567088109093px" fill="#1e1e1e" text-anchor="middle" style="white-space: pre;" direction="ltr" dominant-baseline="text-before-edge">In-House </text><text x="26" y="13.818021513254568" font-family="Helvetica, Segoe UI Emoji" font-size="12.01567088109093px" fill="#1e1e1e" text-anchor="middle" style="white-space: pre;" direction="ltr" dominant-baseline="text-before-edge">Web UI</text></g><g stroke-linecap="round" transform="translate(94.02134658956561 124.90588399255972) rotate(0 32.292115492931885 14.644098886329573)"><path d="M9.23 -1.39 L61.77 -0.71 L63.25 5.27 L64.31 23.63 L60.78 28.1 L56.72 27.39 L5.11 30.1 L1.85 25.23 L-1.85 6.77 L1.83 0.73 L6.7 -0.12" stroke="none" stroke-width="0" fill="#ced4da"></path><path d="M7.32 0 M7.32 0 C24.33 2.37, 41.01 0.74, 57.26 0 M7.32 0 C20.27 0.13, 34.86 -1.04, 57.26 0 M57.26 0 C63.99 -1.48, 64.16 3.68, 64.58 7.32 M57.26 0 C60.84 1.38, 62.56 3.65, 64.58 7.32 M64.58 7.32 C63.56 12.66, 64.39 18, 64.58 21.97 M64.58 7.32 C64.54 11.31, 64.47 14.6, 64.58 21.97 M64.58 21.97 C65.16 27.84, 60.35 30.29, 57.26 29.29 M64.58 21.97 C63.69 28.94, 62.98 27.89, 57.26 29.29 M57.26 29.29 C43.08 27.79, 30.39 30.64, 7.32 29.29 M57.26 29.29 C42.59 28.76, 26.76 28.47, 7.32 29.29 M7.32 29.29 C1.48 31.29, 1.96 26.89, 0 21.97 M7.32 29.29 C3.52 28.56, 0.2 26.24, 0 21.97 M0 21.97 C0.36 16.7, -0.32 12.17, 0 7.32 M0 21.97 C-0.07 19.03, -0.36 14.82, 0 7.32 M0 7.32 C0.17 2.74, 3.15 -0.56, 7.32 0 M0 7.32 C-1.9 2.11, 3.44 0.32, 7.32 0" stroke="#1e1e1e" stroke-width="1" fill="none"></path></g><g transform="translate(102.3134620824975 132.64097212226199) rotate(0 24 6.909010756627282)"><text x="24" y="0" font-family="Helvetica, Segoe UI Emoji" font-size="12.01567088109093px" fill="#1e1e1e" text-anchor="middle" style="white-space: pre;" direction="ltr" dominant-baseline="text-before-edge">curl/wget</text></g><g stroke-linecap="round" transform="translate(381.2104840037632 69.98758749928675) rotate(0 90.04062751101048 74.65327685057207)"><path d="M33.18 1.33 L148.53 -0.88 L161.82 1.47 L172.43 9.68 L179.68 18.08 L179.81 31.15 L178.33 125.46 L179.43 130.07 L171.81 140.47 L160.6 145.5 L149.71 151.28 L31.12 150.83 L16.11 147.21 L9.61 140.62 L1.41 131.54 L-1.02 117.84 L0.81 23.14 L0.81 18.6 L8.17 7.26 L17.23 3.36 L30.88 -1.33" stroke="none" stroke-width="0" fill="#ced4da"></path><path d="M32 0 M32 0 C74.08 -1.38, 112.99 -1.17, 148.08 0 M32 0 C57.01 1.58, 81.78 1.5, 148.08 0 M148.08 0 C169.77 -1.07, 180.2 9.76, 180.08 32 M148.08 0 C169.16 0.18, 180.47 10.03, 180.08 32 M180.08 32 C182.13 64.33, 180.88 95.95, 180.08 117.31 M180.08 32 C180.45 54.26, 179.81 77.5, 180.08 117.31 M180.08 117.31 C181.01 140.34, 168.11 149.9, 148.08 149.31 M180.08 117.31 C181.68 140.4, 169.49 151.03, 148.08 149.31 M148.08 149.31 C112.01 148.7, 81.47 147.92, 32 149.31 M148.08 149.31 C108.1 149.41, 67.77 148.73, 32 149.31 M32 149.31 C12.25 148.88, 1.7 138.45, 0 117.31 M32 149.31 C12.18 147.34, 1.55 140.71, 0 117.31 M0 117.31 C-1.53 90.75, -1.72 60.75, 0 32 M0 117.31 C-0.32 98.03, 0.15 77.82, 0 32 M0 32 C0.43 10.83, 11.61 -1.12, 32 0 M0 32 C-0.42 8.9, 9.74 1.9, 32 0" stroke="#1e1e1e" stroke-width="1" fill="none"></path></g><g stroke-linecap="round" transform="translate(426.4596506098201 211.69080091144065) rotate(0 38.5 15)"><path d="M6.62 1.16 L72.96 -1.07 L74.56 4.86 L75.99 23.89 L76.12 29.39 L70.89 30.06 L2.37 28.98 L0.46 24.68 L-0.62 7.38 L2.89 3.29 L5.81 -0.5" stroke="none" stroke-width="0" fill="#e9ecef"></path><path d="M7.5 0 M7.5 0 C31.62 -0.04, 58.77 -1.56, 69.5 0 M7.5 0 C30.92 -0.4, 52.29 0.96, 69.5 0 M69.5 0 C73.36 1.2, 75.24 3.55, 77 7.5 M69.5 0 C76.77 -0.6, 77.68 0.95, 77 7.5 M77 7.5 C75.93 10.55, 77.59 15.57, 77 22.5 M77 7.5 C77.21 13.64, 76.32 19.41, 77 22.5 M77 22.5 C76.22 29.32, 75.23 28.78, 69.5 30 M77 22.5 C75.95 29.49, 72.63 28.29, 69.5 30 M69.5 30 C54.41 31.75, 37.32 31.81, 7.5 30 M69.5 30 C51 30.77, 34.44 29.79, 7.5 30 M7.5 30 C3.44 29.37, 0.17 26.97, 0 22.5 M7.5 30 C3.19 30.99, 0.43 28.16, 0 22.5 M0 22.5 C-0.97 17.31, 0.92 14.02, 0 7.5 M0 22.5 C0.16 17.13, 0.36 11.33, 0 7.5 M0 7.5 C-1.65 2.21, 3.37 0.28, 7.5 0 M0 7.5 C-1.98 2.32, 1.71 0.11, 7.5 0" stroke="#1e1e1e" stroke-width="1" fill="none"></path></g><g transform="translate(443.60965022835035 217.49080091144072) rotate(0 21.350000381469727 9.199999999999989)"><text x="21.350000381469727" y="0" font-family="Helvetica, Segoe UI Emoji" font-size="16px" fill="#1e1e1e" text-anchor="middle" style="white-space: pre;" direction="ltr" dominant-baseline="text-before-edge">Tower</text></g><g stroke-linecap="round" transform="translate(268.1826409197902 209.70140589962858) rotate(0 86.5 21)"><path d="M10.68 -1.54 L165.12 1.3 L171.8 4.01 L173.34 37.36 L171.77 39.44 L160.65 41.45 L5.9 40.24 L0.04 35.98 L1.01 11.91 L0.94 2.12 L12.45 -1.33" stroke="none" stroke-width="0" fill="#e9ecef"></path><path d="M10.5 0 M10.5 0 C60.53 -1.51, 107.85 0.31, 162.5 0 M10.5 0 C47.54 1.74, 84.43 1.72, 162.5 0 M162.5 0 C167.74 1.05, 174.98 2.97, 173 10.5 M162.5 0 C170.18 -1.55, 172.21 3.25, 173 10.5 M173 10.5 C173.67 15.49, 174.54 20.16, 173 31.5 M173 10.5 C172.16 18.87, 172.67 27.14, 173 31.5 M173 31.5 C173.73 37.28, 168.58 43.73, 162.5 42 M173 31.5 C171.13 36.79, 168.25 40.3, 162.5 42 M162.5 42 C101.81 44.18, 44.42 43.13, 10.5 42 M162.5 42 C123.62 43.54, 83.26 43.2, 10.5 42 M10.5 42 C3.67 41.47, 0.6 39.36, 0 31.5 M10.5 42 C3.93 42.66, -0.68 38.1, 0 31.5 M0 31.5 C1.33 24.89, 1.45 17.99, 0 10.5 M0 31.5 C0.34 25.83, -0.84 20.57, 0 10.5 M0 10.5 C0.87 3.78, 1.78 -0.16, 10.5 0 M0 10.5 C-0.79 3.61, 3.46 1.44, 10.5 0" stroke="#1e1e1e" stroke-width="1" fill="none"></path></g><g transform="translate(293.4659737444972 221.5014058996286) rotate(0 61.21666717529297 9.199999999999989)"><text x="61.21666717529297" y="0" font-family="Helvetica, Segoe UI Emoji" font-size="16px" fill="#1e1e1e" text-anchor="middle" style="white-space: pre;" direction="ltr" dominant-baseline="text-before-edge">In-House Web UI</text></g><g stroke-linecap="round" transform="translate(224.2681424228365 95.73095809033549) rotate(0 166.93347468332058 59.5)"><path d="M27.78 0.64 L303.57 -1.89 L318.13 3.12 L327.82 7.5 L330.16 16.19 L333.4 21.67 L333.25 89.13 L333.02 103.68 L328 106.88 L324.2 113.49 L317.45 116.62 L304.18 120.98 L28.29 120.26 L17.09 116.04 L9.28 110.08 L3.76 108.62 L-0.67 97.42 L-1.3 23.83 L3.84 16.21 L8.03 6.09 L16.05 1.64 L28.38 -1.41" stroke="none" stroke-width="0" fill="#099268"></path><path d="M29.75 0 M29.75 0 C96.29 -0.19, 161.37 0.31, 304.12 0 M29.75 0 C125.43 -0.36, 221.99 -1.54, 304.12 0 M304.12 0 C323.03 1.73, 332.24 8.43, 333.87 29.75 M304.12 0 C322.7 -1.7, 335.89 10.07, 333.87 29.75 M333.87 29.75 C333.16 51.39, 332.59 71.63, 333.87 89.25 M333.87 29.75 C334.92 53.23, 334.54 77.08, 333.87 89.25 M333.87 89.25 C334.47 109.95, 324.33 119.57, 304.12 119 M333.87 89.25 C333.18 108.69, 323.74 117.47, 304.12 119 M304.12 119 C243.66 117.46, 180.51 118.6, 29.75 119 M304.12 119 C217.05 118.29, 131.59 118.51, 29.75 119 M29.75 119 C8.19 118.84, -0.68 109.18, 0 89.25 M29.75 119 C9.87 120.44, -0.08 110.87, 0 89.25 M0 89.25 C-0.61 73.28, -0.82 60.48, 0 29.75 M0 89.25 C0.94 66.36, -0.16 44.82, 0 29.75 M0 29.75 C0.85 8.3, 11.29 0.59, 29.75 0 M0 29.75 C1.98 11.21, 9.55 -0.67, 29.75 0" stroke="#1e1e1e" stroke-width="1" fill="none"></path></g><g transform="translate(254.29120513139833 115.39647777348705) rotate(0 133.6999969482422 12.24336969580753)"><text x="0" y="0" font-family="Helvetica, Segoe UI Emoji" font-size="21.292816862273988px" fill="#ffffff" text-anchor="start" style="white-space: pre;" direction="ltr" dominant-baseline="text-before-edge">Nextflow Workflow Executor</text></g><g transform="translate(67.0750627689223 55.28076999672558) rotate(0 59.79999923706055 10.164262105273238)"><text x="0" y="0" font-family="Cascadia, Segoe UI Emoji" font-size="16.940436842122057px" fill="#1e1e1e" text-anchor="start" style="white-space: pre;" direction="ltr" dominant-baseline="text-before-edge">Command Line</text></g><g transform="translate(411.32986284547087 76.43192083510093) rotate(0 58.25 7.9836363636363785)"><text x="0" y="0" font-family="Helvetica, Segoe UI Emoji" font-size="13.88458498023716px" fill="#1e1e1e" text-anchor="start" style="white-space: pre;" direction="ltr" dominant-baseline="text-before-edge">Custom Workflows</text></g><g stroke-linecap="round" transform="translate(670.7939917256203 119.02683435048726) rotate(0 36 16)"><path d="M6.31 -0.5 L69.45 -0.83 L71.82 3.98 L71.56 29.48 L68.54 31.26 L64.35 30.9 L6.34 30.02 L0.08 28.74 L-1.14 9.2 L0.24 3.05 L9.98 -0.53" stroke="none" stroke-width="0" fill="#ced4da"></path><path d="M8 0 M8 0 C26.23 -1.17, 43.49 -1.05, 64 0 M8 0 C27.04 0.27, 46.44 0.02, 64 0 M64 0 C67.54 1, 71.22 4.49, 72 8 M64 0 C70.17 -1.4, 70.95 4.65, 72 8 M72 8 C70.7 12.9, 71.98 15.95, 72 24 M72 8 C72.19 11.1, 71.72 15.61, 72 24 M72 24 C73.96 29.38, 70.27 31.37, 64 32 M72 24 C72.2 28.72, 70.02 32.99, 64 32 M64 32 C45.8 31.65, 26.95 30.31, 8 32 M64 32 C43.23 31.93, 23.85 32.52, 8 32 M8 32 C3.38 31.44, -1.65 29.04, 0 24 M8 32 C3.67 32.32, -1.98 29.15, 0 24 M0 24 C1 19.69, 1.24 14.82, 0 8 M0 24 C-0.12 18.36, 0.9 13.77, 0 8 M0 8 C-0.16 1.18, 4.46 -1.53, 8 0 M0 8 C-0.47 2.25, 3.64 -1.85, 8 0" stroke="#1e1e1e" stroke-width="1" fill="none"></path></g><g transform="translate(680.0106589009133 127.94180704698766) rotate(0 26.78333282470703 7.085027303499601)"><text x="26.78333282470703" y="0" font-family="Helvetica, Segoe UI Emoji" font-size="12.321786614781892px" fill="#1e1e1e" text-anchor="middle" style="white-space: pre;" direction="ltr" dominant-baseline="text-before-edge">mediaflux</text></g><g transform="translate(62.94405475004794 260.3768215561859) rotate(0 83.0999984741211 10.72038288125546)"><text x="0" y="0" font-family="Virgil, Segoe UI Emoji" font-size="17.15261261000874px" fill="#1e1e1e" text-anchor="start" style="white-space: pre;" direction="ltr" dominant-baseline="text-before-edge">Graphical Interface</text></g><g stroke-linecap="round" transform="translate(674.038396293787 185.82379911516603) rotate(0 35 15)"><path d="M8.95 0.14 L63.95 -1.41 L70.21 2.38 L67.72 24.94 L66.53 27.21 L60.85 30.23 L3.3 28.05 L0.9 26.45 L-0.21 8.99 L0.7 3.02 L5.75 -1.62" stroke="none" stroke-width="0" fill="#e9ecef"></path><path d="M7.5 0 M7.5 0 C26.47 1.05, 43.48 -1.86, 62.5 0 M7.5 0 C18.66 0.92, 31.93 1.25, 62.5 0 M62.5 0 C69.08 0.93, 69.11 3.51, 70 7.5 M62.5 0 C67.81 -0.81, 70.81 4.18, 70 7.5 M70 7.5 C70.91 11.4, 69.42 15.92, 70 22.5 M70 7.5 C69.72 12.09, 69.35 16.56, 70 22.5 M70 22.5 C68.06 28.92, 69.15 30.49, 62.5 30 M70 22.5 C70.93 29.52, 66.17 31.28, 62.5 30 M62.5 30 C41.73 28.03, 21.93 29.82, 7.5 30 M62.5 30 C46.29 30.18, 28.83 30.33, 7.5 30 M7.5 30 C1.63 28.92, 1.67 26.06, 0 22.5 M7.5 30 C2.42 30.94, 1.92 26.36, 0 22.5 M0 22.5 C-0.58 19.96, -1.29 13.94, 0 7.5 M0 22.5 C0.39 16.34, -0.07 10.26, 0 7.5 M0 7.5 C-1.27 3.66, 3.35 -1.89, 7.5 0 M0 7.5 C-0.79 0.45, 1.43 -0.55, 7.5 0" stroke="#1e1e1e" stroke-width="1" fill="none"></path></g><g transform="translate(680.1883959123172 193.73877181166642) rotate(0 28.850000381469727 7.085027303499601)"><text x="28.850000381469727" y="0" font-family="Helvetica, Segoe UI Emoji" font-size="12.321786614781892px" fill="#1e1e1e" text-anchor="middle" style="white-space: pre;" direction="ltr" dominant-baseline="text-before-edge">ResToolkit</text></g><g stroke-linecap="round" transform="translate(609.0799169586176 184.1633459437441) rotate(0 37 20.5)"><path d="M12.2 -1.33 L68.56 0.12 L73.42 7.75 L71.9 36.49 L71.79 37.34 L65.59 39.52 L5.34 41.6 L-0.5 36.43 L-1.76 11.3 L4.54 2.04 L10.84 -1.35" stroke="none" stroke-width="0" fill="#e9ecef"></path><path d="M10.25 0 M10.25 0 C23.06 -0.88, 39.5 0.49, 63.75 0 M10.25 0 C31.11 0.1, 50.5 0.1, 63.75 0 M63.75 0 C69.81 1.82, 74.73 2.2, 74 10.25 M63.75 0 C69.53 1.99, 72.13 1.71, 74 10.25 M74 10.25 C73.98 16.48, 72.1 21.58, 74 30.75 M74 10.25 C73.54 17.21, 75 22.19, 74 30.75 M74 30.75 C74.94 36.95, 70.76 40.47, 63.75 41 M74 30.75 C74.69 38.57, 71.02 41.66, 63.75 41 M63.75 41 C47.96 39.43, 36.02 40.45, 10.25 41 M63.75 41 C44.29 40.92, 25.02 40.49, 10.25 41 M10.25 41 C1.77 40.71, 0.87 37.86, 0 30.75 M10.25 41 C1.43 40.82, -0.79 37.69, 0 30.75 M0 30.75 C1.43 23.8, 0.63 16.86, 0 10.25 M0 30.75 C1.02 25.72, -0.01 18.5, 0 10.25 M0 10.25 C1.79 1.88, 3.01 -0.36, 10.25 0 M0 10.25 C0.98 1.56, 5 0.68, 10.25 0" stroke="#1e1e1e" stroke-width="1" fill="none"></path></g><g transform="translate(618.9465837524408 190.4932913367449) rotate(0 27.133333206176758 14.170054606999173)"><text x="27.133333206176758" y="0" font-family="Helvetica, Segoe UI Emoji" font-size="12.321786614781892px" fill="#1e1e1e" text-anchor="middle" style="white-space: pre;" direction="ltr" dominant-baseline="text-before-edge">In-House </text><text x="27.133333206176758" y="14.170054606999175" font-family="Helvetica, Segoe UI Emoji" font-size="12.321786614781892px" fill="#1e1e1e" text-anchor="middle" style="white-space: pre;" direction="ltr" dominant-baseline="text-before-edge">Web UI</text></g><g stroke-linecap="round" transform="translate(608.941176579742 143.3693438795023) rotate(0 69 23)"><path d="M-0.07 1.56 L137.16 0.76 L136.33 45.61 L-0.63 45.41" stroke="none" stroke-width="0" fill="#a5d8ff"></path><path d="M1.98 -1.46 C44.88 0.31, 86.14 1.8, 136.52 -0.42 M-0.88 0.53 C50.93 -1.09, 100.19 -1.5, 137.66 -0.11 M138.81 0.13 C139.37 10.58, 139.17 21.88, 139 44.21 M138.37 -0.61 C137.36 16.97, 137.01 31.47, 137.45 45.26 M136.25 47.27 C84.3 47.04, 30.21 45.86, 2 47.96 M138.09 45.74 C96.58 46, 54.74 45.85, -0.3 45.83 M1.19 45.5 C1.61 31.33, -0.56 19.42, 0.3 0.71 M0.43 46.14 C-0.48 33.41, 0.04 21.02, -0.02 0.63" stroke="#1e1e1e" stroke-width="1" fill="none"></path></g><g transform="translate(652.0745097859187 148.65677562075336) rotate(0 25.866666793823242 17.712568258748973)"><text x="25.866666793823242" y="0" font-family="Helvetica, Segoe UI Emoji" font-size="15.402233268477366px" fill="#1e1e1e" text-anchor="middle" style="white-space: pre;" direction="ltr" dominant-baseline="text-before-edge">UNSW </text><text x="25.866666793823242" y="17.71256825874897" font-family="Helvetica, Segoe UI Emoji" font-size="15.402233268477366px" fill="#1e1e1e" text-anchor="middle" style="white-space: pre;" direction="ltr" dominant-baseline="text-before-edge">Archive</text></g><g stroke-linecap="round" transform="translate(80.47816282685903 146.3725268663814) rotate(0 43.181317228920534 22.5)"><path d="M-1.72 -0.16 L85.68 0.09 L86.32 46.25 L-0.07 46.56" stroke="none" stroke-width="0" fill="#eebefa"></path><path d="M-0.5 1.95 C28.95 1.05, 60.03 0.79, 88.34 -1.46 M0.92 -0.74 C31.13 1.09, 62.12 1.07, 85.48 0.53 M85.01 -0.69 C86.03 16.58, 84.84 34.65, 87.18 45.13 M86.65 0.5 C85.45 17.8, 85.96 35.52, 86.73 44.39 M84.88 43.91 C62.93 46.05, 42.59 45.5, -1.75 46.27 M85.88 46 C62.24 44.7, 36.63 44.36, 0.09 44.74 M0.57 44.41 C-0.54 29.97, -1.53 13.78, 1.19 -0.5 M0.09 45.15 C0.65 28.28, -0.53 11.98, 0.43 0.14" stroke="#1e1e1e" stroke-width="1" fill="none"></path></g><g transform="translate(88.24281211754715 151.59999997481322) rotate(0 35.41666793823242 17.27252689156822)"><text x="35.41666793823242" y="0" font-family="Helvetica, Segoe UI Emoji" font-size="15.019588601363662px" fill="#1e1e1e" text-anchor="middle" style="white-space: pre;" direction="ltr" dominant-baseline="text-before-edge">SRA &amp;</text><text x="35.41666793823242" y="17.27252689156821" font-family="Helvetica, Segoe UI Emoji" font-size="15.019588601363662px" fill="#1e1e1e" text-anchor="middle" style="white-space: pre;" direction="ltr" dominant-baseline="text-before-edge">Ramaciotti</text></g><g transform="translate(308.444087220297 10) rotate(0 90.63333129882812 15.3338929894324)"><text x="90.63333129882812" y="0" font-family="Helvetica, Segoe UI Emoji" font-size="26.667639981621576px" fill="#1e1e1e" text-anchor="middle" style="white-space: pre;" direction="ltr" dominant-baseline="text-before-edge">Individual Tools</text></g><g stroke-linecap="round" transform="translate(480.4626967720103 156.05162853936542) rotate(0 30.690103484824135 14.5)"><path d="M5.94 1.44 L57.63 2.12 L59.33 3.66 L61.8 26.36 L57.83 27.65 L55.68 30.02 L4.08 27.27 L-0.45 25.45 L-1.62 8.18 L3.15 -0.17 L8.51 1.62" stroke="none" stroke-width="0" fill="#40c057"></path><path d="M7.25 0 M7.25 0 C18.53 -1.92, 32.11 0.81, 54.13 0 M7.25 0 C21.33 -0.58, 36.5 0.27, 54.13 0 M54.13 0 C58.69 1.26, 60.02 0.76, 61.38 7.25 M54.13 0 C58.85 2.17, 62.01 1.47, 61.38 7.25 M61.38 7.25 C60.25 13.8, 62.73 18.78, 61.38 21.75 M61.38 7.25 C61.98 10.61, 61.98 12.94, 61.38 21.75 M61.38 21.75 C63.2 27.84, 57.18 30.55, 54.13 29 M61.38 21.75 C60.31 28.57, 58.98 30.93, 54.13 29 M54.13 29 C37.86 29.93, 17.34 30.54, 7.25 29 M54.13 29 C43.34 28.82, 30.9 28.22, 7.25 29 M7.25 29 C2.29 29.89, -0.73 25.57, 0 21.75 M7.25 29 C2.71 29.48, -0.07 27.48, 0 21.75 M0 21.75 C0.55 17.48, -0.01 10.3, 0 7.25 M0 21.75 C-0.44 16.34, 0.17 11.02, 0 7.25 M0 7.25 C-0.23 2.14, 1.6 0.38, 7.25 0 M0 7.25 C-0.03 2.69, 1.98 1.96, 7.25 0" stroke="#1e1e1e" stroke-width="1" fill="none"></path></g><g transform="translate(499.7028004475694 161.13999680401935) rotate(0 11.449999809265137 9.411631735346077)"><text x="11.449999809265137" y="0" font-family="Helvetica, Segoe UI Emoji" font-size="16.368055191906212px" fill="#1e1e1e" text-anchor="middle" style="white-space: pre;" direction="ltr" dominant-baseline="text-before-edge">PC</text></g><g stroke-linecap="round" transform="translate(415.820795008834 156.05162853936537) rotate(0 37.97632940610697 16.709584938687073)"><path d="M8.46 -0.05 L71.71 -1.29 L76.9 5.38 L76.95 27.49 L73.33 30.29 L68.07 32.39 L6.57 32.8 L-0.4 27.07 L-0.53 6.9 L2.29 2.54 L6.5 -0.11" stroke="none" stroke-width="0" fill="#69db7c"></path><path d="M8.35 0 M8.35 0 C24.2 -1, 40.86 1.89, 67.6 0 M8.35 0 C27.64 -0.86, 45.49 -0.33, 67.6 0 M67.6 0 C73.49 -0.29, 77.26 1.04, 75.95 8.35 M67.6 0 C72.81 1.28, 76.73 1.58, 75.95 8.35 M75.95 8.35 C76.96 12.81, 74.55 17.23, 75.95 25.06 M75.95 8.35 C75.35 12.81, 76.09 18.03, 75.95 25.06 M75.95 25.06 C74.43 29.97, 71.4 32.96, 67.6 33.42 M75.95 25.06 C74.45 32.29, 73.55 35.34, 67.6 33.42 M67.6 33.42 C55.99 31.94, 41.97 35.23, 8.35 33.42 M67.6 33.42 C46.35 33.31, 25.19 33.51, 8.35 33.42 M8.35 33.42 C4.12 31.44, 1.26 32.26, 0 25.06 M8.35 33.42 C1.79 35.1, 1.76 29.76, 0 25.06 M0 25.06 C0.08 21.55, -0.19 16.99, 0 8.35 M0 25.06 C-0.16 21.61, -0.62 16.42, 0 8.35 M0 8.35 C-0.1 4.67, 3.33 -0.82, 8.35 0 M0 8.35 C2.22 1.37, 2.3 -1.65, 8.35 0" stroke="#1e1e1e" stroke-width="1" fill="none"></path></g><g transform="translate(432.1471247964107 161.11513912684632) rotate(0 21.649999618530273 11.646074351206153)"><text x="21.649999618530273" y="0" font-family="Helvetica, Segoe UI Emoji" font-size="20.254042349923726px" fill="#1e1e1e" text-anchor="middle" style="white-space: pre;" direction="ltr" dominant-baseline="text-before-edge">Gadi</text></g><g stroke-linecap="round" transform="translate(288.6006008389329 156.30155079654725) rotate(0 69 23.5)"><path d="M10.03 0.8 L131.04 1.26 L134.72 2.64 L137.24 7.2 L135.86 41.26 L132.81 44.69 L125.11 48.94 L7.43 45.84 L3.09 43.65 L-0.97 37.63 L-1.68 10.55 L0.26 5.88 L4.95 0.33 L10.88 -0.6" stroke="none" stroke-width="0" fill="#b2f2bb"></path><path d="M11.75 0 M11.75 0 C38.58 -1.22, 62.6 -0.44, 126.25 0 M11.75 0 C55.86 0.99, 99.72 1.6, 126.25 0 M126.25 0 C135.78 -1.68, 138.22 4.09, 138 11.75 M126.25 0 C133.62 -1.74, 137.58 2.4, 138 11.75 M138 11.75 C139.59 19.53, 138.37 29.01, 138 35.25 M138 11.75 C137.76 20.64, 138.25 28.29, 138 35.25 M138 35.25 C137.36 41.96, 132.66 45.09, 126.25 47 M138 35.25 C136.55 43.08, 132.77 47.69, 126.25 47 M126.25 47 C89.94 46.01, 52.64 47.84, 11.75 47 M126.25 47 C100.72 46.88, 73.22 46.45, 11.75 47 M11.75 47 C4.64 47.85, 0.93 43.39, 0 35.25 M11.75 47 C5.16 46.67, -1.7 43.73, 0 35.25 M0 35.25 C-1.97 28.79, 1.19 22.84, 0 11.75 M0 35.25 C0.15 30.6, 0.6 25.7, 0 11.75 M0 11.75 C0.41 5.17, 5.63 -0.65, 11.75 0 M0 11.75 C-0.87 5.42, 3.68 1.14, 11.75 0" stroke="#1e1e1e" stroke-width="1" fill="none"></path></g><g transform="translate(302.0006023648118 168.30155079654725) rotate(0 55.599998474121094 11.5)"><text x="55.599998474121094" y="0" font-family="Helvetica, Segoe UI Emoji" font-size="20px" fill="#1e1e1e" text-anchor="middle" style="white-space: pre;" direction="ltr" dominant-baseline="text-before-edge">Katana HPC</text></g></svg>