<svg version="1.1" xmlns="http://www.w3.org/2000/svg" viewBox="0 0 550.8534638185354 212.40411129546885" width="1101.7069276370707" height="424.8082225909377" filter="invert(93%) hue-rotate(180deg)">
  <!-- svg-source:excalidraw -->
  
  <defs>
    <style class="style-fonts">
      @font-face {
        font-family: "Virgil";
        src: url("https://excalidraw.com/Virgil.woff2");
      }
      @font-face {
        font-family: "Cascadia";
        src: url("https://excalidraw.com/Cascadia.woff2");
      }
    </style>
    
  </defs>
  <g stroke-linecap="round" transform="translate(161.35698896203655 67.67788919212703) rotate(0 147.1481825606125 43.61207289496727)"><path d="M21.12 1.42 L271.76 -1.77 L280.99 0.98 L286.85 4.93 L293.16 16.32 L293.66 66.31 L293.17 73.2 L285.1 84.12 L273.31 85.92 L20.23 85.86 L10.53 84.5 L4.82 78.02 L0.8 68.71 L-0.68 17.5 L7.3 5.32 L12.61 -0.27 L21.24 0.67" stroke="none" stroke-width="0" fill="#099268"></path><path d="M21.81 0 M21.81 0 C104.67 -1.5, 188.29 -0.77, 272.49 0 M21.81 0 C94.35 1.43, 165.03 2.13, 272.49 0 M272.49 0 C288.62 -0.08, 292.58 7.24, 294.3 21.81 M272.49 0 C288.14 0.32, 292.72 6.02, 294.3 21.81 M294.3 21.81 C295.46 34.57, 294.03 50.11, 294.3 65.42 M294.3 21.81 C294.61 35.98, 295.3 52.16, 294.3 65.42 M294.3 65.42 C294.94 79.76, 286.98 85.24, 272.49 87.22 M294.3 65.42 C293.31 78.09, 285.95 85.79, 272.49 87.22 M272.49 87.22 C193.25 86.98, 113.58 85.56, 21.81 87.22 M272.49 87.22 C200.19 85.31, 126.31 85.92, 21.81 87.22 M21.81 87.22 C8.32 85.48, -0.53 80.29, 0 65.42 M21.81 87.22 C9.29 85.94, 0.62 81.89, 0 65.42 M0 65.42 C0.54 51.11, -1.04 40.65, 0 21.81 M0 65.42 C-0.73 51.91, -0.59 37.09, 0 21.81 M0 21.81 C0.5 7.7, 6.3 1.71, 21.81 0 M0 21.81 C-2.08 9.1, 5.24 -0.1, 21.81 0" stroke="#1e1e1e" stroke-width="1" fill="none"></path></g><g stroke-linecap="round" transform="translate(167.66330979473662 74.10593895473579) rotate(0 50.20980645898368 28.5)"><path d="M-0.07 1.48 L98.97 -0.08 L99.97 57.48 L1.84 55.71" stroke="none" stroke-width="0" fill="#38d9a9"></path><path d="M0.87 0.32 C34.28 1.97, 69.01 -0.11, 100.98 1.96 M-0.77 0.64 C31.45 0.96, 65.22 -0.04, 100.26 -0.43 M101.24 -1.19 C100.42 17.74, 99.03 35.16, 101.49 56.92 M101.08 -0.01 C100.24 19.13, 100.39 37.31, 100.19 56.99 M101.89 55.9 C64.35 56.09, 29.29 57.87, 1.97 56.35 M99.77 57.72 C76.75 56.46, 52.92 56.83, -0.18 57.61 M1.55 58.02 C-0.13 35.09, 1.01 11.06, -0.73 -0.01 M-0.64 56.27 C0.96 37.47, 0.76 15.55, -0.95 0.13" stroke="#1e1e1e" stroke-width="1" fill="none"></path></g><g transform="translate(171.40837708136507 84.66952366446299) rotate(0 45.94396287626921 17.73686727461826)"><text x="45.943962876269225" y="0" font-family="Helvetica, Segoe UI Emoji" font-size="15.423362847494136px" fill="#1e1e1e" text-anchor="middle" style="white-space: pre;" direction="ltr" dominant-baseline="text-before-edge">nf-core </text><text x="45.943962876269225" y="17.736867274618255" font-family="Helvetica, Segoe UI Emoji" font-size="15.423362847494136px" fill="#1e1e1e" text-anchor="middle" style="white-space: pre;" direction="ltr" dominant-baseline="text-before-edge">User-adopted</text></g><g stroke-linecap="round" transform="translate(270.24920293012974 73.72185233426337) rotate(0 43.97320430598916 28)"><path d="M-0.86 0.29 L88.26 1.12 L88.14 57.9 L-0.78 56.72" stroke="none" stroke-width="0" fill="#96f2d7"></path><path d="M0.9 1.41 C23.57 -2.73, 48.23 -2.75, 86.01 1.19 M0.65 -0.78 C23.39 -0.09, 47.83 0.04, 88.25 -0.1 M87.09 0.88 C86.39 17.52, 86.86 32.66, 87.71 57.47 M86.95 -0.33 C87.72 13.88, 88.12 28.02, 87.85 56.12 M89.64 55.98 C55.89 54.46, 23.29 55.5, -1.67 56.08 M87.14 56.21 C62.61 56.14, 36.24 54.7, 0.72 56.18 M1.31 55.83 C0.9 43.38, 1.21 31.5, 1.2 1.94 M0.15 55.11 C-0.16 35.14, -0.54 15.22, -0.74 0.05" stroke="#1e1e1e" stroke-width="1" fill="none"></path></g><g transform="translate(276.2857870010006 82.28800857918883) rotate(0 38.52967200191398 19.074522573692384)"><text x="38.52967200191396" y="0" font-family="Helvetica, Segoe UI Emoji" font-size="16.586541368428158px" fill="#1e1e1e" text-anchor="middle" style="white-space: pre;" direction="ltr" dominant-baseline="text-before-edge">nf-core </text><text x="38.52967200191396" y="19.07452257369238" font-family="Helvetica, Segoe UI Emoji" font-size="16.586541368428158px" fill="#1e1e1e" text-anchor="middle" style="white-space: pre;" direction="ltr" dominant-baseline="text-before-edge">Pre-tested</text></g><g stroke-linecap="round" transform="translate(359.47561670183575 74.22589891877587) rotate(0 41.585376345621626 27.5)"><path d="M-1.34 1.37 L81.79 1.6 L82.04 54.58 L0.8 55.49" stroke="none" stroke-width="0" fill="#e6fcf5"></path><path d="M-1.22 -0.79 C23.78 -1.73, 51.96 -0.29, 84.86 -0.42 M-0.4 0.13 C29.7 0.4, 57.84 1.46, 83.51 0.33 M81.49 1.35 C81.13 18.06, 83.69 34.69, 83.5 54.61 M83.23 -0.93 C84.24 20.85, 82.76 42.72, 83.62 55.32 M85 54.84 C53.12 54.73, 27.18 53.77, 1.1 56.41 M83.51 55.1 C60.48 55.38, 37.61 56.25, -0.83 55.08 M0.15 56.57 C0.36 38.32, 1.28 16.84, 1.67 1.48 M-0.23 55.66 C-0.26 36.37, -1.06 19.48, 0.36 0.81" stroke="#1e1e1e" stroke-width="1" fill="none"></path></g><g transform="translate(367.45898763312744 82.91435724615863) rotate(0 34.36459666000894 17.94982731971321)"><text x="34.36459666000897" y="0" font-family="Helvetica, Segoe UI Emoji" font-size="15.608545495402788px" fill="#1e1e1e" text-anchor="middle" style="white-space: pre;" direction="ltr" dominant-baseline="text-before-edge">Custom </text><text x="34.36459666000897" y="17.949827319713204" font-family="Helvetica, Segoe UI Emoji" font-size="15.608545495402788px" fill="#1e1e1e" text-anchor="middle" style="white-space: pre;" direction="ltr" dominant-baseline="text-before-edge">workflows</text></g><g transform="translate(187.82244686458046 135.72587605119028) rotate(0 36.21666717529297 6.1954535416399565)"><text x="36.21666717529297" y="0" font-family="Helvetica, Segoe UI Emoji" font-size="10.774701811547745px" fill="#ffffff" text-anchor="middle" style="white-space: pre;" direction="ltr" dominant-baseline="text-before-edge">e.g. ATAC-Seq</text></g><g transform="translate(277.83171383421916 135.01935674171696) rotate(0 33.96666717529297 6.322384643996671)"><text x="33.96666717529297" y="0" font-family="Helvetica, Segoe UI Emoji" font-size="10.995451554776821px" fill="#ffffff" text-anchor="middle" style="white-space: pre;" direction="ltr" dominant-baseline="text-before-edge">e.g. RNA-Seq</text></g><g transform="translate(212.4836878151266 165.1825236507911) rotate(0 88.3499984741211 9.199999999999996)"><text x="0" y="0" font-family="Helvetica, Segoe UI Emoji" font-size="16px" fill="#1e1e1e" text-anchor="start" style="white-space: pre;" direction="ltr" dominant-baseline="text-before-edge">Run Workflow on Katana</text></g><g stroke-linecap="round" transform="translate(10.570441399705715 65.99753536351082) rotate(0 70.25740341651135 43.24612329871069)"><path d="M1.27 0.08 L142.1 -0.11 L141.8 88.47 L-1.15 87.51" stroke="none" stroke-width="0" fill="#e9ecef"></path><path d="M1.34 -1.5 C57.14 1.03, 111.29 -1.3, 138.79 -1.3 M0.02 0.51 C48.27 -0.1, 97.63 -0.34, 141.01 0.37 M141.99 -1.49 C141.15 31.86, 138.33 59.92, 141.09 87.93 M141.44 -0.59 C140.74 32.55, 139.42 62.13, 140.78 87.04 M140.03 85.14 C85.51 89.01, 34.88 87.23, -1.4 85.98 M141.19 87.11 C107.97 86.08, 73.13 84.46, 0.11 85.77 M-1.51 85.51 C1.54 63.16, 0.82 41.68, -1.98 0.89 M0.37 86.55 C0.14 61.11, -0.12 36.27, 0.4 -0.54" stroke="#1e1e1e" stroke-width="1" fill="none"></path></g><g transform="translate(15.766155432091978 84.00696360210185) rotate(0 64.71666717529297 25.908790337352315)"><text x="0" y="0" font-family="Helvetica, Segoe UI Emoji" font-size="15.019588601363662px" fill="#1e1e1e" text-anchor="start" style="white-space: pre;" direction="ltr" dominant-baseline="text-before-edge">• Ramaciotti Center</text><text x="0" y="17.27252689156821" font-family="Helvetica, Segoe UI Emoji" font-size="15.019588601363662px" fill="#1e1e1e" text-anchor="start" style="white-space: pre;" direction="ltr" dominant-baseline="text-before-edge">• Katana Storage</text><text x="0" y="34.54505378313642" font-family="Helvetica, Segoe UI Emoji" font-size="15.019588601363662px" fill="#1e1e1e" text-anchor="start" style="white-space: pre;" direction="ltr" dominant-baseline="text-before-edge">• NCBI SRA</text></g><g transform="translate(19.37280823989431 165.60411129546887) rotate(0 61.38333511352539 18.4)"><text x="61.38333511352539" y="0" font-family="Helvetica, Segoe UI Emoji" font-size="16px" fill="#1e1e1e" text-anchor="middle" style="white-space: pre;" direction="ltr" dominant-baseline="text-before-edge">Obtain</text><text x="61.38333511352539" y="18.4" font-family="Helvetica, Segoe UI Emoji" font-size="16px" fill="#1e1e1e" text-anchor="middle" style="white-space: pre;" direction="ltr" dominant-baseline="text-before-edge">Sequencing Data</text></g><g stroke-linecap="round" transform="translate(466.1081478860672 68.6005451687692) rotate(0 31.987373528990815 43.24612329871069)"><path d="M-1.34 1.1 L63.29 1.11 L65.59 84.53 L1.87 86.4" stroke="none" stroke-width="0" fill="#e9ecef"></path><path d="M-1.66 -1.83 C22.18 0.16, 42.51 -1.51, 64.64 -0.03 M0.84 0.15 C22.16 0.61, 43.08 0.53, 64.71 -0.33 M65.59 1.09 C63.18 22.59, 64.98 41.5, 63.87 88.21 M64.32 0.09 C63.14 20.95, 63.35 39.58, 63.09 85.83 M65.2 88.36 C50.52 86.31, 36.03 87.48, 0.81 87.41 M64.94 86.26 C38.81 86.93, 15.77 85.77, -0.78 86.63 M1.62 88.1 C0.46 58.7, 1.11 31.83, 0.86 -1.77 M-0.01 86.69 C0.39 68.5, -0.62 50.46, -0.57 -0.78" stroke="#1e1e1e" stroke-width="1" fill="none"></path></g><g transform="translate(471.6143581800827 79.17882207572299) rotate(0 25 34.54505378313642)"><text x="25" y="0" font-family="Helvetica, Segoe UI Emoji" font-size="15.019588601363662px" fill="#1e1e1e" text-anchor="middle" style="white-space: pre;" direction="ltr" dominant-baseline="text-before-edge">UNSW </text><text x="25" y="17.27252689156821" font-family="Helvetica, Segoe UI Emoji" font-size="15.019588601363662px" fill="#1e1e1e" text-anchor="middle" style="white-space: pre;" direction="ltr" dominant-baseline="text-before-edge">Data </text><text x="25" y="34.54505378313642" font-family="Helvetica, Segoe UI Emoji" font-size="15.019588601363662px" fill="#1e1e1e" text-anchor="middle" style="white-space: pre;" direction="ltr" dominant-baseline="text-before-edge">Archive</text><text x="25" y="51.81758067470463" font-family="Helvetica, Segoe UI Emoji" font-size="15.019588601363662px" fill="#1e1e1e" text-anchor="middle" style="white-space: pre;" direction="ltr" dominant-baseline="text-before-edge"></text></g><g transform="translate(450.1867996950002 165.7156686633507) rotate(0 45.33333206176758 9.199999999999996)"><text x="0" y="0" font-family="Helvetica, Segoe UI Emoji" font-size="16px" fill="#1e1e1e" text-anchor="start" style="white-space: pre;" direction="ltr" dominant-baseline="text-before-edge">Store Output</text></g><g stroke-linecap="round" transform="translate(10 10) rotate(0 260.483433714106 12.248231046483063)"><path d="M6.12 0 L514.84 0 L519.44 1.53 L520.58 3.44 L520.97 18.37 L519.44 22.97 L514.84 24.5 L6.12 24.5 L1.53 22.97 L0 18.37 L0.38 3.44 L1.53 1.53 L3.44 0.38 L6.12 0" stroke="none" stroke-width="0" fill="#a5d8ff"></path><path d="M6.12 0 M6.12 0 C177.11 0, 348.1 0, 514.84 0 M6.12 0 C137.04 0, 267.96 0, 514.84 0 M514.84 0 C518.93 0, 520.97 2.04, 520.97 6.12 M514.84 0 C518.93 0, 520.97 2.04, 520.97 6.12 M520.97 6.12 C520.97 10.51, 520.97 14.9, 520.97 18.37 M520.97 6.12 C520.97 9.55, 520.97 12.98, 520.97 18.37 M520.97 18.37 C520.97 22.46, 518.93 24.5, 514.84 24.5 M520.97 18.37 C520.97 22.46, 518.93 24.5, 514.84 24.5 M514.84 24.5 C343.83 24.5, 172.82 24.5, 6.12 24.5 M514.84 24.5 C347.43 24.5, 180.02 24.5, 6.12 24.5 M6.12 24.5 C2.04 24.5, 0 22.46, 0 18.37 M6.12 24.5 C2.04 24.5, 0 22.46, 0 18.37 M0 18.37 C0 15.09, 0 11.8, 0 6.12 M0 18.37 C0 15.35, 0 12.33, 0 6.12 M0 6.12 C0 2.04, 2.04 0, 6.12 0 M0 6.12 C0 2.04, 2.04 0, 6.12 0" stroke="#1e1e1e" stroke-width="1" fill="none"></path></g><g stroke-linecap="round" transform="translate(10.002580802946795 36.29426862346836) rotate(0 261.03533461297025 13.347964089199273)"><path d="M6.67 0 L515.4 0 L518.32 0.42 L520.4 1.67 L521.65 3.75 L522.07 20.02 L521.65 22.94 L520.4 25.03 L518.32 26.28 L515.4 26.7 L6.67 26.7 L3.75 26.28 L1.67 25.03 L0.42 22.94 L0 20.02 L0.42 3.75 L1.67 1.67 L3.75 0.42 L6.67 0" stroke="none" stroke-width="0" fill="#ffec99"></path><path d="M6.67 0 M6.67 0 C148.62 0, 290.57 0, 515.4 0 M6.67 0 C152.7 0, 298.72 0, 515.4 0 M515.4 0 C519.85 0, 522.07 2.22, 522.07 6.67 M515.4 0 C519.85 0, 522.07 2.22, 522.07 6.67 M522.07 6.67 C522.07 11.12, 522.07 15.58, 522.07 20.02 M522.07 6.67 C522.07 11.3, 522.07 15.93, 522.07 20.02 M522.07 20.02 C522.07 24.47, 519.85 26.7, 515.4 26.7 M522.07 20.02 C522.07 24.47, 519.85 26.7, 515.4 26.7 M515.4 26.7 C365.07 26.7, 214.75 26.7, 6.67 26.7 M515.4 26.7 C379.08 26.7, 242.76 26.7, 6.67 26.7 M6.67 26.7 C2.22 26.7, 0 24.47, 0 20.02 M6.67 26.7 C2.22 26.7, 0 24.47, 0 20.02 M0 20.02 C0 15.02, 0 10.02, 0 6.67 M0 20.02 C0 15.35, 0 10.69, 0 6.67 M0 6.67 C0 2.22, 2.22 0, 6.67 0 M0 6.67 C0 2.22, 2.22 0, 6.67 0" stroke="#1e1e1e" stroke-width="1" fill="none"></path></g><g transform="translate(11.482679038617334 40.89339098482896) rotate(0 103.03333282470703 9.6)"><text x="0" y="0" font-family="Cascadia, Segoe UI Emoji" font-size="16px" fill="#1e1e1e" text-anchor="start" style="white-space: pre;" direction="ltr" dominant-baseline="text-before-edge">Command Line Interface</text></g><g transform="translate(13.67439636294921 12.428567286979195) rotate(0 84.30000305175781 9.6)"><text x="0" y="0" font-family="Cascadia, Segoe UI Emoji" font-size="16px" fill="#1e1e1e" text-anchor="start" style="white-space: pre;" direction="ltr" dominant-baseline="text-before-edge">Web User Interface</text></g></svg>